# xmcd
#
# Track frame offsets: 
#        150
#        17835
#        25605
#        41802
#        52756
#        66128
#        80937
#        92958
#        109270
#        119113
#        134376
#        144123
#        156340
#        167703
#        177723
#        189828
#        206476
#        220309
#        234716
#        246596
#        258914
#        269376
#        283031
#        292924
#        303810
#
# Disc length: 4194 seconds
#
# Revision: 0
# Processed by: cddbd v1.5.2PL0 Copyright (c) Steve Scherf et al.
# Submitted via: ExactAudioCopy v1.1
#
DISCID=79106019
DTITLE=Buddy Guy - The Complete Chess Studio Recordings - Disc 2
DYEAR=1992
DGENRE=Blues
TTITLE0=Worried Mind (Stick Around) (mono)
TTITLE1=Untitled Instrumental (mono)
TTITLE2=Moanin' (mono)
TTITLE3=I Dig Your Wig (mono)
TTITLE4=My Time After Awhile (stereo)
TTITLE5=Night Flight (stereo)
TTITLE6=Crazy Love (Crazy Music) (stereo)
TTITLE7=Every Girl I See (stereo)
TTITLE8=Too Many Ways (stereo)
TTITLE9=Leave My Girl Alone (stereo)
TTITLE10=Got To Use Your Head (stereo)
TTITLE11=Keep It To Myself (stereo)
TTITLE12=My Mother (stereo)
TTITLE13=She Suits Me To A Tee (mono)
TTITLE14=Mother-In-Law Blues (stereo)
TTITLE15=Buddy's Groove (stereo)
TTITLE16=Going To School (stereo)
TTITLE17=I Cry And Sing The Blues (stereo)
TTITLE18=Goin' Home (stereo)
TTITLE19=I Suffer With The Blues (stereo)
TTITLE20=Lip Lap Louie (stereo)
TTITLE21=My Time After Awhile (alt) (stereo)
TTITLE22=Too Many Ways (alt) (stereo)
TTITLE23=Keep It To Myself (alt) (stereo)
TTITLE24=I Didn't Know My Mother (She Suits Me To A Tee alt) (stereo)
EXTD=
EXTT0=
EXTT1=
EXTT2=
EXTT3=
EXTT4=
EXTT5=
EXTT6=
EXTT7=
EXTT8=
EXTT9=
EXTT10=
EXTT11=
EXTT12=
EXTT13=
EXTT14=
EXTT15=
EXTT16=
EXTT17=
EXTT18=
EXTT19=
EXTT20=
EXTT21=
EXTT22=
EXTT23=
EXTT24=
PLAYORDER=
